#!OML:ASF I:\Actors\actors\Patient Classification 2\Patient 1\Session 1\actor1.ASF
:FULLY-SPECIFIED
:DEGREES
770
root -0.502152 18.5229 5.06616 0.804438 2.0697 -5.93413
lowerback 22.2589 0.703682 4.0226
upperback 4.18663 2.03547 2.05109
thorax -7.77075 0.903003 -0.637769
lowerneck -21.1306 -3.31942 -1.34421
upperneck 17.7003 -5.21118 4.77014
head 9.21998 -1.97732 1.13622
rclavicle 2.28602e-014 2.5842e-015
rhumerus -15.9965 17.2335 -59.6035
rradius 68.0378
rwrist 7.18689
rhand 7.45053 -32.9494
rfingers 7.12502
rthumb 32.7044 -60.0116
lclavicle 2.28602e-014 2.5842e-015
lhumerus -16.1053 -24.1638 73.4851
lradius 69.6878
lwrist 1.22915
lhand 8.32461 -27.443
lfingers 7.12502
lthumb 33.5356 -0.557337
rfemur 5.61095 1.76001 19.3754
rtibia -1.51076e-014
rfoot -15.212 -14.6627
rtoes -17.0247
lfemur -14.6323 0.29484 -7.80721
ltibia 33.8544
lfoot -19.8121 3.54426
ltoes -57.2909
771
root -0.48973 18.5309 5.06644 0.970469 1.94389 -5.98114
lowerback 22.2553 0.715152 4.08896
upperback 4.21775 2.05822 1.99285
thorax -7.7289 0.912681 -0.744898
lowerneck -20.9468 -3.31207 -1.27206
upperneck 17.8384 -5.24492 4.83015
head 9.237 -1.98133 1.14237
rclavicle 1.95554e-014 -1.5704e-014
rhumerus -17.2953 18.5483 -60.4204
rradius 68.6513
rwrist 6.53124
rhand 6.61786 -32.7735
rfingers 7.12502
rthumb 31.9119 -59.9971
lclavicle 1.95554e-014 -1.5704e-014
lhumerus -17.3651 -25.2795 74.1475
lradius 70.2103
lwrist 2.20265
lhand 8.36057 -26.976
lfingers 7.12502
lthumb 33.5698 -0.0977886
rfemur 5.41719 1.8854 19.3833
rtibia -1.66979e-014
rfoot -15.2167 -14.6469
rtoes -16.7471
lfemur -14.7093 0.314446 -7.7979
ltibia 33.7445
lfoot -19.8194 3.63521
ltoes -57.1767
772
root -0.478984 18.5378 5.0694 1.10396 1.85171 -5.95787
lowerback 22.2501 0.722725 4.0443
upperback 4.22518 2.05135 1.93369
thorax -7.71746 0.909981 -0.781812
lowerneck -20.7046 -3.2778 -1.15777
upperneck 17.9699 -5.2409 4.83294
head 9.23698 -1.97245 1.12802
rclavicle -3.58558e-014 -2.93207e-015
rhumerus -18.4581 19.8146 -61.1747
rradius 69.2116
rwrist 6.10206
rhand 5.61926 -32.4835
rfingers 7.12502
rthumb 30.9605 -59.8925
lclavicle -3.58558e-014 -2.93207e-015
lhumerus -18.5902 -26.3516 74.7429
lradius 70.7162
lwrist 2.93105
lhand 7.90092 -26.7344
lfingers 7.12502
lthumb 33.1328 0.237685
rfemur 5.2797 1.97644 19.3172
rtibia 1.27222e-014
rfoot -15.2754 -14.6085
rtoes -16.4102
lfemur -14.7528 0.333585 -7.86292
ltibia 33.6494
lfoot -19.8264 3.68668
ltoes -57.1212
773
root -0.469846 18.5438 5.07472 1.18367 1.76673 -5.91972
lowerback 22.2237 0.730566 3.95267
upperback 4.25881 2.03386 1.89722
thorax -7.66917 0.904565 -0.763681
lowerneck -20.521 -3.23774 -1.10787
upperneck 18.1063 -5.20546 4.82055
head 9.24897 -1.95406 1.12269
rclavicle -1.14798e-014 1.55052e-014
rhumerus -19.4157 20.9074 -61.8474
rradius 69.6578
rwrist 5.89392
rhand 4.03138 -31.9356
rfingers 7.12502
rthumb 29.4457 -59.6218
lclavicle -1.14798e-014 1.55052e-014
lhumerus -19.6618 -27.2731 75.2993
lradius 71.123
lwrist 3.2793
lhand 7.19942 -26.8059
lfingers 7.12502
lthumb 32.4655 0.305584
rfemur 5.20857 2.06039 19.2408
rtibia 1.27222e-014
rfoot -15.3421 -14.5815
rtoes -16.1937
lfemur -14.7516 0.364002 -7.93821
ltibia 33.5738
lfoot -19.8282 3.72072
ltoes -57.0902
774
root -0.461397 18.5483 5.0805 1.24537 1.68225 -5.96389
lowerback 22.1599 0.718503 3.91032
upperback 4.30356 2.00156 1.88434
thorax -7.58867 0.891916 -0.74291
lowerneck -20.3565 -3.17666 -1.00754
upperneck 18.1891 -5.13003 4.70688
head 9.2397 -1.92587 1.07967
rclavicle 3.2464e-014 -7.95139e-016
rhumerus -20.2104 21.9174 -62.4669
rradius 70.0282
rwrist 5.61543
rhand 3.31739 -31.7307
rfingers 7.12502
rthumb 28.7638 -59.5349
lclavicle 3.2464e-014 -7.95139e-016
lhumerus -20.6189 -28.0194 75.7416
lradius 71.589
lwrist 3.73283
lhand 6.80642 -26.7479
lfingers 7.12502
lthumb 32.0914 0.43968
rfemur 5.14945 2.14539 19.2594
rtibia -2.3059e-014
rfoot -15.3905 -14.5608
rtoes -15.9302
lfemur -14.7441 0.390283 -7.91981
ltibia 33.5128
lfoot -19.8406 3.79043
ltoes -57.1114
